# xmcd
#
# Track frame offsets:
#	150
#	17652
#	30926
#	45349
#	60943
#	76846
#	97898
#	112705
#	127990
#	141319
#	155315
#	167954
#
# Disc length: 2480 seconds
#
# Revision: 1
# Processed by: cddbd v1.4PL0 Copyright (c) Steve Scherf et al.
# Submitted via: EasyCDDAExtractor 5.0.6
#
DISCID=7c09ae0c
DTITLE=Karen Abrahams And Reckless Abandon - Still Feeling Blue
DYEAR=1997
DGENRE=Texas Music
TTITLE0=I Miss Texas
TTITLE1=Still Feeling Blue
TTITLE2=Thinking Of Me
TTITLE3=White Rabbit
TTITLE4=Brass Buttons
TTITLE5=Middle Aged Blues
TTITLE6=I'm Here To Tell You
TTITLE7=Texas Blues
TTITLE8=Big River
TTITLE9=Chiltipin Creek
TTITLE10=Dirty Blues
TTITLE11=White Freight Liner
EXTD=
EXTT0=
EXTT1=
EXTT2=
EXTT3=
EXTT4=
EXTT5=
EXTT6=
EXTT7=
EXTT8=
EXTT9=
EXTT10=
EXTT11=
PLAYORDER=
